<?xml version="1.0" standalone="no"?>
<!DOCTYPE svg PUBLIC "-//W3C//DTD SVG 20010904//EN"
 "http://www.w3.org/TR/2001/REC-SVG-20010904/DTD/svg10.dtd">
<svg version="1.0" xmlns="http://www.w3.org/2000/svg"
 width="700.000000pt" height="700.000000pt" viewBox="0 0 700.000000 700.000000"
 preserveAspectRatio="xMidYMid meet">
<metadata>
Created by potrace 1.14, written by Peter Selinger 2001-2017
</metadata>
<g transform="translate(0.000000,700.000000) scale(0.100000,-0.100000)"
fill="#000000" stroke="none">
<path d="M3506 6330 c-66 -17 -153 -70 -206 -126 -95 -100 -120 -192 -120
-434 0 -236 25 -328 114 -427 162 -179 435 -185 607 -14 102 102 129 195 129
441 0 241 -25 329 -122 435 -74 81 -170 126 -280 131 -45 2 -100 -1 -122 -6z"/>
<path d="M3019 4915 l-4 -610 -27 -75 c-87 -238 -297 -389 -544 -392 -165 -2
-297 53 -415 171 -84 84 -128 161 -159 277 -18 68 -18 47 -19 -1233 l-1 -1303
-29 0 c-28 0 -29 2 -22 28 5 16 4 42 -3 62 -9 28 -22 40 -62 59 -46 23 -56 33
-101 114 l-50 89 89 142 c105 167 117 199 94 244 -24 47 -58 66 -107 59 -22
-3 -46 -10 -54 -17 -8 -6 -42 -56 -75 -111 -34 -54 -63 -99 -65 -99 -2 0 -26
41 -54 92 l-51 92 61 100 c188 305 189 308 189 351 0 72 -66 118 -135 95 -35
-12 -51 -33 -173 -233 -43 -71 -62 -94 -69 -85 -5 7 -32 53 -59 102 -55 100
-86 123 -146 112 -51 -9 -83 -48 -82 -99 0 -36 33 -101 212 -421 117 -208 211
-380 210 -382 -2 -2 -69 21 -148 50 l-145 54 -52 183 c-42 150 -56 188 -78
206 -44 38 -103 25 -131 -28 -16 -31 -15 -37 16 -151 18 -65 30 -121 28 -124
-3 -2 -41 9 -84 26 -116 44 -168 39 -199 -20 -42 -81 -6 -131 129 -180 53 -19
96 -37 96 -40 0 -3 -48 -39 -106 -80 -58 -41 -110 -82 -115 -92 -37 -70 32
-156 104 -129 14 6 92 58 172 116 80 58 152 105 160 105 12 0 124 -39 134 -47
3 -2 -32 -41 -77 -87 -76 -77 -82 -87 -82 -125 0 -60 41 -104 98 -104 48 0 55
5 199 139 l98 91 69 -25 69 -26 -31 -10 c-17 -6 -40 -20 -51 -31 -20 -19 -20
-35 -22 -600 -3 -553 -2 -582 16 -613 40 -67 -135 -62 2184 -60 l2101 3 32 33
33 32 3 589 2 589 -23 28 c-20 23 -34 28 -89 33 l-65 6 80 113 80 114 238 -4
c229 -3 239 -2 266 18 55 41 55 127 0 168 -26 19 -44 21 -188 24 -118 3 -159
7 -156 15 2 7 35 56 73 109 l69 98 247 0 c242 0 247 0 273 22 53 47 49 134 -8
168 -28 18 -51 20 -194 20 -90 0 -163 2 -163 4 0 3 43 66 96 141 84 118 97
142 97 177 0 76 -86 126 -155 90 -13 -7 -66 -73 -118 -147 -51 -74 -97 -132
-100 -127 -4 4 -26 61 -50 127 -23 66 -50 135 -58 153 -28 63 -108 81 -161 36
-54 -45 -51 -66 38 -311 45 -121 81 -223 81 -227 0 -12 -145 -211 -155 -213
-5 -1 -35 67 -65 150 -49 135 -59 154 -90 175 -27 18 -44 22 -70 18 -46 -7
-90 -55 -90 -97 0 -18 36 -132 81 -254 l81 -222 -116 -163 -116 -163 -2 964
c-3 937 -3 962 -20 896 -29 -112 -75 -194 -153 -272 -233 -233 -582 -235 -816
-5 -87 85 -129 160 -160 278 -18 71 -19 121 -20 986 -1 501 -4 898 -6 881 -15
-112 -80 -248 -157 -329 -228 -236 -600 -241 -830 -10 -87 86 -154 222 -169
339 -2 17 -5 -244 -8 -580z"/>
<path d="M2306 5169 c-109 -38 -200 -118 -252 -224 l-29 -60 0 -260 0 -260 33
-68 c83 -169 256 -261 442 -235 172 23 318 167 351 342 6 36 9 139 7 255 -4
217 -13 253 -80 354 -98 145 -305 213 -472 156z"/>
<path d="M4708 4529 c-167 -24 -316 -169 -348 -338 -14 -72 -13 -387 1 -453
33 -154 143 -274 292 -320 194 -59 405 35 498 220 l34 67 0 260 c0 251 -1 262
-23 310 -85 182 -262 281 -454 254z"/>
</g>
</svg>
